<?xml version="1.0" encoding="utf-8"?>
<!-- Generator: Adobe Illustrator 15.1.0, SVG Export Plug-In . SVG Version: 6.00 Build 0)  -->
<!DOCTYPE svg PUBLIC "-//W3C//DTD SVG 1.1//EN" "http://www.w3.org/Graphics/SVG/1.1/DTD/svg11.dtd">
<svg version="1.1" id="Layer_1" xmlns="http://www.w3.org/2000/svg" xmlns:xlink="http://www.w3.org/1999/xlink" x="0px" y="0px"
	 width="120px" height="120px" viewBox="0 0 120 120" enable-background="new 0 0 120 120" xml:space="preserve">
<g>
	<g>
		<circle fill="none" cx="59.988" cy="60.011" r="3.737"/>
		<path fill="#F2DA97" d="M60,0C26.862,0,0,26.863,0,60c0,33.137,26.862,60,60,60s60-26.863,60-60C120,26.863,93.137,0,60,0z M58,3
			h4v7h-4V3z M5.025,74.236l-0.728-3.188l5.919-1.351l0.728,3.188L5.025,74.236z M19.347,29.693L14.6,25.908l2.038-2.557
			l4.748,3.786L19.347,29.693z M36.842,111.853l-2.946-1.419l2.635-5.47l2.946,1.417L36.842,111.853z M59.988,63.748
			c-2.063,0-3.736-1.673-3.736-3.737s1.673-3.737,3.736-3.737c2.064,0,3.736,1.673,3.736,3.737S62.053,63.748,59.988,63.748z
			 M83.144,111.848l-2.635-5.471l2.946-1.418l2.635,5.47L83.144,111.848z M100.631,29.693l-2.039-2.556l4.747-3.786l2.039,2.557
			L100.631,29.693z M109.034,72.876l0.728-3.188l5.92,1.351l-0.728,3.188L109.034,72.876z"/>
		<rect x="58" y="3" fill="none" width="4" height="7"/>
		
			<rect x="14.957" y="24.888" transform="matrix(-0.7819 -0.6234 0.6234 -0.7819 15.5251 58.4768)" fill="none" width="6.071" height="3.269"/>
		
			<rect x="5.986" y="68.93" transform="matrix(-0.2225 -0.9749 0.9749 -0.2225 -60.8459 95.4065)" fill="none" width="3.27" height="6.072"/>
		
			<rect x="35.051" y="105.371" transform="matrix(-0.901 -0.4339 0.4339 -0.901 22.7006 221.996)" fill="none" width="3.27" height="6.073"/>
		
			<rect x="80.263" y="106.768" transform="matrix(-0.4339 -0.901 0.901 -0.4339 21.7778 230.4891)" fill="none" width="6.072" height="3.27"/>
		
			<rect x="110.723" y="68.922" transform="matrix(0.2225 -0.9749 0.9749 0.2225 17.2022 165.486)" fill="none" width="3.269" height="6.072"/>
		
			<rect x="100.35" y="23.487" transform="matrix(-0.6236 -0.7817 0.7817 -0.6236 144.8493 122.7874)" fill="none" width="3.27" height="6.071"/>
	</g>
	<path fill="#FFC107" d="M41.977,27.435c0.613,0.768,0.487,1.888-0.282,2.5l-6.956,5.547c-0.768,0.613-1.887,0.486-2.5-0.282
		l-7.211-9.043c-0.612-0.768-0.486-1.888,0.282-2.5l6.957-5.547c0.768-0.612,1.888-0.487,2.5,0.282L41.977,27.435z"/>
	<path fill="#FFEB3B" d="M29.628,38.474c0.885,0.426,1.257,1.49,0.83,2.375l-3.861,8.015c-0.426,0.885-1.49,1.257-2.375,0.831
		l-10.42-5.019c-0.885-0.427-1.257-1.49-0.831-2.375l3.861-8.015c0.426-0.886,1.49-1.258,2.375-0.831L29.628,38.474z"/>
	<path fill="#CDDC39" d="M23.29,53.777c0.983,0,1.78,0.797,1.779,1.78l-0.002,8.896c0,0.982-0.796,1.779-1.779,1.779L11.723,66.23
		c-0.983,0-1.779-0.798-1.779-1.78l0.002-8.896c0-0.982,0.796-1.779,1.779-1.779L23.29,53.777z"/>
	<path fill="#4CAF50" d="M24.219,70.314c0.886-0.427,1.949-0.054,2.375,0.832l3.858,8.017c0.426,0.885,0.054,1.949-0.832,2.374
		l-10.421,5.017c-0.886,0.426-1.95,0.053-2.375-0.832l-3.858-8.017c-0.426-0.886-0.054-1.949,0.832-2.375L24.219,70.314z"/>
	<path fill="#009688" d="M32.23,84.813c0.613-0.769,1.732-0.895,2.501-0.282l6.954,5.55c0.768,0.613,0.894,1.732,0.281,2.501
		l-7.214,9.04c-0.612,0.769-1.733,0.894-2.501,0.281l-6.954-5.55c-0.768-0.612-0.894-1.733-0.281-2.501L32.23,84.813z"/>
	<path fill="#00BCD4" d="M45.737,94.399c0.218-0.959,1.173-1.558,2.131-1.338l8.672,1.982c0.958,0.22,1.558,1.173,1.338,2.132
		l-2.578,11.273c-0.219,0.958-1.173,1.558-2.131,1.338l-8.673-1.982c-0.958-0.219-1.557-1.174-1.337-2.131L45.737,94.399z"/>
	<path fill="#2196F3" d="M62.066,97.178c-0.219-0.959,0.381-1.913,1.339-2.131l8.675-1.975c0.958-0.22,1.912,0.381,2.13,1.339
		l2.569,11.276c0.218,0.959-0.383,1.913-1.34,2.131l-8.675,1.975c-0.958,0.219-1.913-0.381-2.131-1.339L62.066,97.178z"/>
	<path fill="#4051B5" d="M77.983,92.597c-0.612-0.769-0.486-1.889,0.283-2.501l6.958-5.543c0.77-0.612,1.889-0.485,2.502,0.283
		l7.206,9.047c0.611,0.769,0.485,1.889-0.283,2.5l-6.96,5.543c-0.768,0.613-1.888,0.485-2.5-0.283L77.983,92.597z"/>
	<path fill="#673AB7" d="M90.338,81.564c-0.885-0.428-1.256-1.491-0.83-2.375l3.865-8.015c0.428-0.885,1.491-1.256,2.377-0.83
		l10.417,5.025c0.885,0.427,1.257,1.49,0.829,2.376l-3.865,8.013c-0.427,0.886-1.491,1.257-2.376,0.83L90.338,81.564z"/>
	<path fill="#9C27B0" d="M96.684,66.265c-0.982-0.001-1.779-0.798-1.778-1.781l0.007-8.896c0.001-0.983,0.798-1.779,1.78-1.779
		l11.565,0.008c0.983,0.001,1.779,0.798,1.779,1.781l-0.007,8.896c0,0.983-0.798,1.779-1.78,1.778L96.684,66.265z"/>
	<path fill="#E91C63" d="M95.765,49.727c-0.887,0.426-1.949,0.053-2.375-0.833l-3.854-8.019c-0.427-0.886-0.054-1.949,0.832-2.375
		l10.424-5.01c0.887-0.426,1.95-0.053,2.375,0.833l3.854,8.019c0.426,0.885,0.053,1.948-0.833,2.375L95.765,49.727z"/>
	<path fill="#F44336" d="M87.76,35.225c-0.612,0.768-1.732,0.893-2.5,0.279l-6.95-5.553c-0.769-0.614-0.894-1.733-0.281-2.501
		l7.219-9.037c0.614-0.767,1.734-0.893,2.502-0.279l6.951,5.553c0.768,0.613,0.893,1.733,0.279,2.501L87.76,35.225z"/>
	<path fill="#FF5722" d="M74.259,25.631c-0.221,0.958-1.174,1.557-2.132,1.337l-8.672-1.988c-0.959-0.219-1.557-1.174-1.338-2.131
		l2.584-11.273c0.221-0.958,1.175-1.557,2.133-1.337l8.672,1.988c0.958,0.218,1.557,1.174,1.337,2.131L74.259,25.631z"/>
	<path fill="#FF9800" d="M57.931,22.844c0.218,0.958-0.383,1.911-1.341,2.129l-8.675,1.971c-0.958,0.218-1.912-0.382-2.13-1.34
		l-2.562-11.278c-0.217-0.958,0.382-1.913,1.341-2.13l8.676-1.971c0.958-0.219,1.912,0.382,2.128,1.34L57.931,22.844z"/>
</g>
</svg>
